<svg xmlns="http://www.w3.org/2000/svg" xmlns:xlink="http://www.w3.org/1999/xlink" width="50" zoomAndPan="magnify" viewBox="0 0 37.5 37.499999" height="50" preserveAspectRatio="xMidYMid meet" version="1.0"><defs><clipPath id="31d5770a29"><path d="M 7 20 L 30 20 L 30 37.007812 L 7 37.007812 Z M 7 20 " clip-rule="nonzero"/></clipPath><clipPath id="d24721a13c"><path d="M 0 0 L 37.007812 0 L 37.007812 33 L 0 33 Z M 0 0 " clip-rule="nonzero"/></clipPath></defs><g clip-path="url(#31d5770a29)"><path fill="#ffffff" d="M 30 31.5 C 30 25.296875 24.953125 20.25 18.75 20.25 C 12.546875 20.25 7.5 25.296875 7.5 31.5 L 7.5 33.738281 C 10.636719 36.101562 14.53125 37.5 18.75 37.5 C 22.96875 37.5 26.863281 36.101562 30 33.738281 Z M 30 31.5 " fill-opacity="1" fill-rule="nonzero"/></g><path fill="#ffffff" d="M 24 13.5 C 24 10.605469 21.644531 8.25 18.75 8.25 C 15.855469 8.25 13.5 10.605469 13.5 13.5 C 13.5 16.394531 15.855469 18.75 18.75 18.75 C 21.644531 18.75 24 16.394531 24 13.5 Z M 24 13.5 " fill-opacity="1" fill-rule="nonzero"/><g clip-path="url(#d24721a13c)"><path fill="#ffffff" d="M 18.75 0 C 8.410156 0 0 8.410156 0 18.75 C 0 24.167969 2.3125 29.054688 6 32.480469 L 6 30.75 C 6 30.679688 6.023438 30.617188 6.039062 30.554688 C 6.4375 25.160156 10.203125 20.699219 15.238281 19.253906 C 13.300781 18.066406 12 15.933594 12 13.5 C 12 9.777344 15.027344 6.75 18.75 6.75 C 22.472656 6.75 25.5 9.777344 25.5 13.5 C 25.5 15.933594 24.199219 18.066406 22.261719 19.253906 C 27.589844 20.785156 31.5 25.6875 31.5 31.5 L 31.5 32.480469 C 35.1875 29.054688 37.5 24.167969 37.5 18.75 C 37.5 8.410156 29.089844 0 18.75 0 Z M 18.75 0 " fill-opacity="1" fill-rule="nonzero"/></g></svg>